<svg width="280" height="112" viewBox="0 0 280 112" fill="none" xmlns="http://www.w3.org/2000/svg">
<path d="M40.4488 75.1025H49.476V77.6611H37.8704V67.424H40.4488V75.1025Z" fill="black"/>
<path d="M81.7173 77.6611H71.4008V75.1025H79.1389V67.424H81.7173V77.6611Z" fill="black"/>
<path d="M49.476 36.71H40.4488V45.6678H37.8704V34.1515H49.476V36.71Z" fill="black"/>
<path d="M81.7173 45.6678H79.1389V36.71H71.4008V34.1515H81.7173V45.6678Z" fill="black"/>
<path d="M40.2687 75.3402H49.2959V77.8987H37.6903V67.6617H40.2687V75.3402Z" fill="black"/>
<path d="M81.5371 77.8987H71.2207V75.3402H78.9587V67.6617H81.5371V77.8987Z" fill="black"/>
<path d="M49.2959 36.9477H40.2687V45.9054H37.6903V34.3891H49.2959V36.9477Z" fill="black"/>
<path d="M81.5371 45.9054H78.9587V36.9477H71.2207V34.3891H81.5371V45.9054Z" fill="black"/>
<path fill-rule="evenodd" clip-rule="evenodd" d="M68.8299 46.4047L59.3177 25L49.8054 46.4047L28.2283 55.8447L49.8054 65.2847L59.3177 86.7006L68.8299 65.2847L90.4071 55.8447L68.8299 46.4047Z" fill="black"/>
<path d="M127.685 29.8732L146.374 81.3313H133.225L118.008 36.3971H122.883L107.592 81.3313H94.5171L113.28 29.8732H127.685ZM105.671 62.6392H134.038L137.214 72.2418H102.569L105.671 62.6392Z" fill="black"/>
<path d="M150.018 81.3313V40.4287H162.502V81.3313H150.018ZM160.581 63.7388L162.502 50.3245C163.388 47.1481 164.94 44.6558 167.156 42.8477C169.372 40.9907 172.204 40.0622 175.651 40.0622V52.9634C175.109 52.8656 174.592 52.7923 174.1 52.7435C173.607 52.6946 173.115 52.6702 172.622 52.6702C170.8 52.6702 169.126 53.11 167.599 53.9896C166.072 54.8204 164.841 56.0665 163.905 57.728C162.97 59.3407 162.502 61.3442 162.502 63.7388H160.581Z" fill="black"/>
<path d="M198.422 81.8444C193.892 81.8444 190.42 80.6227 188.007 78.1793C185.594 75.687 184.387 72.0952 184.387 67.4039V50.4711H177.813V40.4287H205.071V50.4711H196.871V67.5505C196.871 68.7233 197.241 69.6518 197.979 70.336C198.767 70.9713 199.703 71.2889 200.786 71.2889C201.279 71.2889 201.722 71.24 202.116 71.1423C202.559 70.9957 202.978 70.8002 203.372 70.5559L206.474 79.6453C205.292 80.2806 204.037 80.8182 202.707 81.258C201.427 81.6489 199.998 81.8444 198.422 81.8444ZM181.063 43.7273V40.4287C182.146 40.4287 183.033 40.0866 183.722 39.4025C184.412 38.7183 184.756 37.8387 184.756 36.7636V30.4596H196.871V34.8578C196.871 35.5419 196.699 36.2994 196.354 37.1301C196.009 37.912 195.468 38.6206 194.729 39.2559C194.039 39.8423 193.202 40.2332 192.217 40.4287L181.063 43.7273Z" fill="black"/>
<path d="M226.595 81.8444C223 81.8444 219.848 80.9159 217.14 79.0589C214.481 77.2019 212.412 74.7097 210.935 71.5821C209.507 68.4057 208.793 64.8383 208.793 60.88C208.793 56.9705 209.507 53.4276 210.935 50.2512C212.412 47.0748 214.481 44.5581 217.14 42.7011C219.848 40.8441 223 39.9156 226.595 39.9156C229.747 39.9156 232.48 40.7708 234.795 42.4812C237.159 44.1427 238.808 46.4884 239.744 49.5182V40.4287H252.228V81.3313H246.097C244.127 81.3313 242.576 80.7937 241.443 79.7186C240.311 78.5947 239.744 77.0553 239.744 75.1006V72.3151C238.808 75.2961 237.159 77.6417 234.795 79.3521C232.48 81.0136 229.747 81.8444 226.595 81.8444ZM230.658 70.9957C232.283 70.9957 233.785 70.6047 235.164 69.8229C236.543 69.041 237.651 67.8926 238.488 66.3777C239.326 64.8627 239.744 63.0302 239.744 60.88C239.744 58.7787 239.326 56.9705 238.488 55.4556C237.651 53.9407 236.543 52.7679 235.164 51.9371C233.785 51.1064 232.283 50.691 230.658 50.691C228.984 50.691 227.457 51.1064 226.078 51.9371C224.699 52.7679 223.591 53.9407 222.754 55.4556C221.966 56.9705 221.572 58.7787 221.572 60.88C221.572 63.0302 221.966 64.8627 222.754 66.3777C223.591 67.8926 224.699 69.041 226.078 69.8229C227.506 70.6047 229.033 70.9957 230.658 70.9957Z" fill="black"/>
</svg>
